<svg xmlns="http://www.w3.org/2000/svg" version="1.1" xmlns:xlink="http://www.w3.org/1999/xlink" xmlns:svgjs="http://svgjs.dev/svgjs" viewBox="0 0 14.515135564314388 14.51400424768515"><g transform="matrix(1,0,0,1,4.165082793478859,4.165381505520215)"><rect width="14.515135564314388" height="14.515135564314388" x="-4.165082793478859" y="-4.165947163834834" fill="#ffffff"></rect><g><path d=" M -0.24178305593231902 -1.5084468932959276 L -0.2033313128449326 -1.5388189767533007 L -0.04093364211367334 -1.3332198606533974 Q -0.0497583055809257 -1.2701791966761697 -0.08690180053407343 -1.211531001625806 Q -0.1240452954872211 -1.1528828065754424 -0.18133054539291937 -1.107634600608336 Q -0.2629424082722703 -1.0431714030661565 -0.3569798855546361 -1.027512448236139 Q -0.45101736283700194 -1.0118534934061216 -0.5384989252185951 -1.045974253117409 Q -0.6259804876001883 -1.0800950128286966 -0.6885841698286508 -1.1593526873557587 Q -0.7511878520571134 -1.2386103618828206 -0.7641201166162226 -1.3316157731951372 Q -0.7770523811753317 -1.424621184507454 -0.7400400401802782 -1.5124752488076667 Q -0.7030276991852248 -1.600329313107879 -0.6206311068551109 -1.665412349087964 Q -0.5602069391463607 -1.7131399088066928 -0.4944058478434615 -1.7338936165079089 Q -0.4286047565405622 -1.754647324209125 -0.36337479522390287 -1.7462776081669207 L -0.3674116307595292 -1.6997619768280008 Q -0.4292126178609458 -1.7070171813937272 -0.4840672224666873 -1.688538210817752 Q -0.538921827072429 -1.6700592402417767 -0.5907139708227862 -1.629149903340009 Q -0.6613396213914553 -1.5733644439285077 -0.6934389690555491 -1.4970369791498344 Q -0.7255383167196432 -1.420709514371161 -0.714013614328583 -1.3399727121382419 Q -0.7024889119375229 -1.2592359099053227 -0.6485629678397383 -1.1909644476889427 Q -0.5952568621798593 -1.1234777149233257 -0.5189919801008526 -1.093877583817616 Q -0.44272709802184584 -1.0642774527119063 -0.36112312083173503 -1.0771242774852063 Q -0.2795191436416242 -1.0899711022585064 -0.20889349307295518 -1.1457565616700074 Q -0.11472595898139643 -1.220137174218676 -0.0924019923970767 -1.3193270956620473 L -0.24178305593231902 -1.5084468932959276 M 0.6473488906224717 -1.6502163509823942 L 0.38586007871623734 -1.7696676014901476 Q 0.356290858800835 -1.7468715221431506 0.32942623359154444 -1.7314024590698953 L 0.1561060709509603 -1.6316020521456673 L 0.2703775368792012 -1.4331504659221987 L 0.22618089540585223 -1.4077013621565206 L -0.12312052882894531 -2.014321931398565 L 0.09439627528498779 -2.139571442088471 Q 0.2087875826277733 -2.205439710658461 0.3049702707818136 -2.1887023124298643 Q 0.40115295893585384 -2.171964914201267 0.45654218477880026 -2.075772223935743 Q 0.4979593536523549 -2.0038443564399007 0.4893224340473251 -1.933673824022537 Q 0.48068551444229535 -1.8635032916051737 0.4237010969955508 -1.8041503121664366 L 0.697611737788241 -1.6791584689904204 L 0.6473488906224717 -1.6502163509823942 M 0.30697114203359316 -1.7703994956640268 Q 0.4040304331123203 -1.8262877235415944 0.4304592803775462 -1.8986255838377861 Q 0.4568881276427721 -1.9709634441339778 0.41147894249224837 -2.0498241181354437 Q 0.3660697573417247 -2.1286847921369096 0.29023970864900606 -2.142140412347807 Q 0.21440965995628736 -2.1555960325587042 0.11735036887756023 -2.0997078046811364 L -0.055969793763023884 -1.9999073977569086 L 0.13365097939300905 -1.6705990887397988 L 0.30697114203359316 -1.7703994956640268 M 1.2156793743867191 -2.110126145297887 L 0.8390550496766405 -1.958501219785367 L 0.8300662453090775 -1.7425169578678799 L 0.7790457087104214 -1.7219766354462331 L 0.8163254739761392 -2.4915831706976777 L 0.8636354260948929 -2.5106296514886592 L 1.4237597620934381 -1.9815316187743153 L 1.3727392254947821 -1.9609912963526686 L 1.2156793743867191 -2.110126145297887 M 1.1819953005775323 -2.1429191807111763 L 0.8604304098048414 -2.448971498170704 L 0.8415491745465006 -2.0058592110976425 L 1.1819953005775323 -2.1429191807111763 M 1.969639568822088 -2.8388683302830677 L 2.1320857971495624 -2.157978307664012 L 2.091232395792419 -2.148231533964364 L 1.4861583277747135 -2.628937652307479 L 1.627254480379148 -2.0375360326612135 L 1.5776467787311883 -2.0257006645973545 L 1.4152005504037142 -2.7065906872164103 L 1.4570266517931705 -2.7165695269565266 L 2.061128019778563 -2.2356313425729435 L 1.9200318671741283 -2.827032962219209 L 1.969639568822088 -2.8388683302830677 M 2.921328421362296 -2.9416516219981226 L 2.9740846810611457 -2.243642469434499 L 2.932204131907328 -2.240477093852568 L 2.4107381723791157 -2.810798277970185 L 2.4565607522318307 -2.2045274711720664 L 2.4057057996879094 -2.200683800822579 L 2.3529495399890603 -2.8986929533862025 L 2.3958272450751115 -2.901933695053417 L 2.9162960486710903 -2.3315371448505164 L 2.8704734688183753 -2.937807951648635 L 2.921328421362296 -2.9416516219981226 M 3.4820303441505294 -2.4646718491009736 L 3.4662345266799903 -2.224190057377697 L 3.4153441890124085 -2.227532740742832 L 3.4311400064829476 -2.4680145324661087 L 3.179830524960182 -2.944510644199204 L 3.2357101114187024 -2.940840246778664 L 3.4611624620748307 -2.5131438152017496 L 3.7406220890617647 -2.9076755843716398 L 3.793508126245722 -2.9042018153843427 L 3.4820303441505294 -2.4646718491009736 M 4.3967493376695135 -2.748947179210451 L 4.324608202725065 -2.4587805776710474 L 4.686588612003318 -2.3687851150145955 L 4.675489975858017 -2.324144099393149 L 4.313509566579765 -2.4141395620496007 L 4.238955684647208 -2.1142683918968395 L 4.189462384719083 -2.1265734015361937 L 4.358354673886687 -2.8058932044712517 L 4.812528484991841 -2.692976645427768 L 4.80142984884654 -2.6483356298063208 L 4.3967493376695135 -2.748947179210451 M 5.281130370337624 -1.7730109427756806 L 5.211845823587851 -2.0520174867521233 Q 5.175598556159235 -2.0609693359442387 5.146769231112001 -2.0723653886521243 L 4.960773585645972 -2.1458883093481593 L 4.876589841449012 -1.932923295289557 L 4.829160951855174 -1.951671640067046 L 5.0864911742912975 -2.6026563991981453 L 5.319915709351163 -2.510385133724621 Q 5.442672835358742 -2.4618600060652382 5.489445289690991 -2.376165271596091 Q 5.536217744023241 -2.290470537126944 5.495412523036942 -2.187242953893298 Q 5.4649005109480875 -2.1100547610248963 5.404606211189926 -2.073134611828651 Q 5.344311911431765 -2.0362144626324055 5.26238849559264 -2.043866517078746 L 5.335069107522772 -1.7516892957738304 L 5.281130370337624 -1.7730109427756806 M 5.163311888268608 -2.1142144088819808 Q 5.267469449729584 -2.073041573292201 5.340535088014331 -2.0973862339397127 Q 5.413600726299078 -2.1217308945872246 5.4470536552157744 -2.206358913274267 Q 5.4805065841324705 -2.29098693196131 5.443834791592261 -2.3587101158194828 Q 5.407162999052051 -2.426433299677655 5.303005437591075 -2.4676061352674346 L 5.117009792125047 -2.54112905596347 L 4.97731624280258 -2.187737329578016 L 5.163311888268608 -2.1142144088819808 M 5.9948464460294035 -1.6144993628133775 L 5.6417383956869696 -1.8148757705648022 L 5.467105960200499 -1.6874649685264211 L 5.419271125794504 -1.7146095557833876 L 6.044798903223718 -2.1644973191916264 L 6.089154840582004 -2.139326883735167 L 6.023729487833892 -1.3716006804453578 L 5.975894653427897 -1.3987452677023242 L 5.9948464460294035 -1.6144993628133775 M 5.999543816908234 -1.6612747271286528 L 6.038903884564804 -2.103454311770538 L 5.68035501278096 -1.8424031548251376 L 5.999543816908234 -1.6612747271286528 M 7.034511147529928 -1.4780499017524245 L 6.602741446507471 -0.9270735635318271 L 6.569682866214235 -0.9529797455931746 L 6.569254673200562 -1.7257622613443677 L 6.194231847169628 -1.2471999561470488 L 6.154089285384985 -1.2786574629358278 L 6.585858986407442 -1.8296338011564253 L 6.619704675755278 -1.8031108052364744 L 6.61934575971435 -1.0309451033438846 L 6.994368585745285 -1.5095074085412035 L 7.034511147529928 -1.4780499017524245" fill="#ff6b00" fill-rule="nonzero"></path></g><g><path d=" M -2.534944681088966 1.4859195874698998 L -2.41551609072557 1.1146557839503377 L -2.5678092437195006 0.9774267944795728 L -2.5442297528015994 0.9041259922462233 L -1.9758515129364533 1.423111711170934 L -1.998206095235243 1.4926046795220316 L -2.7625697141582695 1.5828723817576282 L -2.73868399608559 1.5086196210537157 L -2.534944681088966 1.4859195874698998 M -2.469559039676183 1.4785903380513759 L -2.0601764927418085 1.4338027251933 L -2.3666667156707955 1.1587322919422145 L -2.469559039676183 1.4785903380513759 M -2.122990126857543 1.9284961315919271 L -2.169919975304232 2.20960569977624 Q -2.188197916278206 2.3190904789638145 -2.246087084355997 2.395602531735004 Q -2.3039762524337886 2.4721145845061927 -2.3901303350571124 2.5053820467979504 Q -2.476284417680436 2.5386495090897077 -2.5768920526095584 2.5218535633298402 Q -2.6774996875386807 2.5050576175699724 -2.748175153481342 2.445608239829009 Q -2.8188506194240035 2.386158862088046 -2.848746544568682 2.294991523310698 Q -2.8786424697133604 2.2038241845333495 -2.8603645287393866 2.094339405345775 L -2.8134346802926973 1.8132298371614624 L -2.122990126857543 1.9284961315919271 M -2.7965795050285696 2.1009326405312168 Q -2.8117287894394307 2.191676781839837 -2.7870890010327436 2.2657452017451765 Q -2.7624492126260565 2.339813621650516 -2.705086991900042 2.3879158631095168 Q -2.6477247711740284 2.436018104568518 -2.56487142476181 2.4498500599001742 Q -2.4820180783495913 2.4636820152318295 -2.412141231371127 2.436821705175014 Q -2.3422643843926627 2.4099613951181986 -2.294900669369684 2.347913603060608 Q -2.247536954346705 2.285865811003017 -2.232387669935844 2.1951216696943967 L -2.1983017800114064 1.990947351750001 L -2.762493615104132 1.896758322586821 L -2.7965795050285696 2.1009326405312168 M -2.2500155988571144 3.324305573297618 L -2.9427657369658045 2.9984263837957554 L -2.941101360650934 2.9254453598821213 L -2.234215423703619 2.631485716144896 L -2.2360393977473128 2.7114649204338104 L -2.849991663389437 2.965533052069603 L -2.248305623191152 3.249325069276761 L -2.2500155988571144 3.324305573297618 M -2.8158053794041864 4.00244597426101 L -2.8794389728336647 4.009284525807343 L -2.9323308949498283 3.5171184516262204 L -2.236338466814908 3.442321794088212 L -2.1850493302174163 3.9195737448092998 L -2.2486829236468946 3.926412296355632 L -2.29206498501894 3.5227366880373783 L -2.539639434455504 3.549342927647327 L -2.5009588772715627 3.9092704404828145 L -2.5635981958037055 3.9160021396612352 L -2.602278752987647 3.556074626825748 L -2.860790226294903 3.5838562424827227 L -2.8158053794041864 4.00244597426101 M -2.00652476709318 4.690276232673218 L -2.684916742783267 4.86285759701856 L -2.6999559759619327 4.803740581994138 L -2.260434507052553 4.227594004838862 L -2.810901138755367 4.367631454764796 L -2.8291454544147316 4.295915731620416 L -2.1507534787246443 4.123334367275073 L -2.1357142455459788 4.1824513822994955 L -2.5749891696491507 4.7595670908486145 L -2.024522537946337 4.61952964092268 L -2.00652476709318 4.690276232673218 M -1.9314564791014033 5.070935855568759 L -2.0229180354288014 4.842570394707949 L -1.963505883009729 4.818775518265049 L -1.753069944467829 5.344201741221222 L -1.8124820968869015 5.367996617664122 L -1.9039436532142997 5.139631156803312 L -2.494351917878833 5.3760927414546344 L -2.5218647437659367 5.307397440220082 L -1.9314564791014033 5.070935855568759 M -2.21382396024698 5.8216736968030816 Q -2.1829349180458797 5.717242537315605 -2.052954235204618 5.644400090293836 L -1.7031404511821622 5.448361021463434 L -1.6669636654129611 5.5129151860960075 L -2.0141603887070696 5.707487628476305 Q -2.120587524993203 5.76713043744715 -2.146040587974937 5.844442413135577 Q -2.171493650956671 5.921754388824004 -2.1206506006864423 6.012479160740052 Q -2.069318674932846 6.104076286232217 -1.990089308780678 6.122723203916533 Q -1.9108599426285098 6.1413701216008505 -1.8044328063423762 6.081727312630005 L -1.4572360830482678 5.887154870249707 L -1.422037048245802 5.949964327730048 L -1.7718508322682578 6.146003396560449 Q -1.9018315151095195 6.218845843582219 -2.006785193040808 6.191115436288143 Q -2.111738870972097 6.163385028994068 -2.1782259367100885 6.044744942642313 Q -2.24471300244808 5.926104856290557 -2.21382396024698 5.8216736968030816 M -1.550304527456079 6.9549255247292825 L -1.469586355008159 6.690899812654364 Q -1.4884314951075805 6.671332986273135 -1.5061190707209686 6.648351479165883 L -1.6207833540077592 6.499367915849903 L -1.7967107532425866 6.63476935675239 L -1.841844566876749 6.576126890340781 L -1.2871185332534194 6.1491854100176235 L -1.1273204363324663 6.356811439745213 Q -1.0455916386706048 6.463001851895965 -1.049955801023938 6.562263899461757 Q -1.054319963377271 6.661525947027551 -1.1430761287570037 6.729836583879256 Q -1.2080583212671652 6.779849728717111 -1.2781441674573497 6.7814226762069545 Q -1.3482300136475343 6.782995623696797 -1.4150052205410575 6.737223670009772 L -1.500901299018685 7.019115251477126 L -1.550304527456079 6.9549255247292825 M -1.3239834277557134 6.706287716199652 Q -1.2539846006636466 6.7218171787059635 -1.188209942391166 6.671194117467646 Q -1.1208503525940474 6.6193512234284055 -1.118338562433922 6.548014410279853 Q -1.1158267722737965 6.4766775971313 -1.1792580779218085 6.394261157850121 L -1.2927025284076759 6.246862526058779 L -1.5708580109816594 6.460943182620818 L -1.4574135604957923 6.60834181441216 Q -1.3939822548477803 6.690758253693341 -1.3239834277557134 6.706287716199652 M -0.9179423052118396 7.524410018838395 L -0.9630079356003081 7.569853268696763 L -1.3144830712236135 7.221298783660952 L -0.8215777388497403 6.724263238335065 L -0.4807533649119895 7.062255466248579 L -0.525818995300458 7.107698716106945 L -0.8140996115894721 6.821813623330099 L -0.989433079819607 6.998616267310307 L -0.7323946978082199 7.253518739195082 L -0.7767561777218686 7.2982519382744115 L -1.0337945597332556 7.043349466389637 L -1.2168736831864084 7.227962668939252 L -0.9179423052118396 7.524410018838395 M -0.7048786732207849 7.7605896796894625 Q -0.7461783334891173 7.697094892015825 -0.7519770527971157 7.640806573028782 L -0.694181147457221 7.613427140493722 Q -0.6873397923856001 7.666730009654622 -0.6518497852073006 7.72384138672158 Q -0.6163597780290012 7.780952763788538 -0.5633378961398052 7.821912256472507 Q -0.48894898722063485 7.879377813372405 -0.4306634507073638 7.880808279506275 Q -0.3723779141940928 7.882238745640145 -0.3387544500505357 7.838713320208716 Q -0.31307835015909213 7.805475722606533 -0.31797492733931976 7.770102377671144 Q -0.3228715045195475 7.734729032735753 -0.3438992131563634 7.701426097887828 Q -0.3649269217931792 7.668123163039902 -0.40737606092367806 7.615113064123945 Q -0.45766768503661964 7.550990115469952 -0.48355242882973565 7.507616966647614 Q -0.5094371726228517 7.464243817825275 -0.5127173565228103 7.41369195936703 Q -0.5159975404227688 7.363140100908785 -0.47626071916220125 7.31170096176255 Q -0.44385992644204625 7.269758279074082 -0.3951084245815961 7.2524510243423075 Q -0.3463569227211459 7.2351437696105325 -0.2845626546710478 7.250025585230699 Q -0.22276838662094967 7.264907400850865 -0.1547104486736235 7.317482272057155 Q -0.10722816638479138 7.354162414759217 -0.07181135176772768 7.402371845811455 Q -0.036394537150663875 7.450581276863694 -0.02088567518781148 7.499207146528073 L -0.07673876646518618 7.530614664652899 Q -0.09383037117099957 7.480766123565118 -0.12453457192536144 7.438724453093598 Q -0.15523877267972308 7.3966827826220785 -0.19322459851078888 7.3673386684604285 Q -0.26603076468699827 7.311095782983933 -0.32453195122623013 7.310762356077394 Q -0.3830331377654619 7.310428929170855 -0.41726793762072 7.354745725973765 Q -0.4429440375121636 7.387983323575948 -0.4383531281877864 7.423752354197077 Q -0.4337622188634092 7.459521384818207 -0.4115474531693725 7.493741323233685 Q -0.3893326874753359 7.527961261649162 -0.34767491971631764 7.580360024853418 Q -0.29835470263463604 7.642468930712528 -0.2720742731557797 7.686147747390717 Q -0.24579384367692347 7.729826564068906 -0.24260367760685464 7.779677068985561 Q -0.23941351153678592 7.829527573902215 -0.27853899708565233 7.88017534167697 Q -0.3109397898058073 7.922118024365438 -0.3600869773519978 7.939119611241362 Q -0.40923416489818826 7.956121198117286 -0.4715141364639163 7.940232361099678 Q -0.5337941080296444 7.9243435240820705 -0.6018520459769706 7.871768652875781 Q -0.6635790129524525 7.8240844673631 -0.7048786732207849 7.7605896796894625 M 0.22944771778402168 8.36181673932724 Q 0.17486253954708791 8.282299707712358 0.16883563778205551 8.18859310999846 Q 0.16280873601702311 8.094886512284559 0.20820285767544316 8.004662492650867 Q 0.2535969793338632 7.914438473017178 0.332434254452005 7.863429316467139 Q 0.41127152957014673 7.8124201599170995 0.5076552554727545 7.808859628898979 Q 0.6040389813753622 7.805299097880859 0.6969429223843107 7.852041559786559 Q 0.7898468633932593 7.898784021692259 0.8437634578796536 7.977404952995505 Q 0.897680052366048 8.056025884298752 0.9039288843190767 8.15040385894974 Q 0.9101777162721055 8.24478183360073 0.8647835946136855 8.33500585323442 Q 0.8193894729552654 8.42522987286811 0.739880820900034 8.476460959606147 Q 0.6603721688448025 8.527692046344182 0.5651064734418276 8.531255370548852 Q 0.4698407780388526 8.534818694753522 0.37693683702990405 8.488076232847822 Q 0.28403289602095544 8.441333770942123 0.22944771778402168 8.36181673932724 M 0.5574506443239639 8.463035957765406 Q 0.6341564747957263 8.45964987276393 0.6979903543636984 8.417323925411251 Q 0.7618242339316703 8.374997978058573 0.7986788673573183 8.301746793801518 Q 0.8355335007829663 8.228495609544463 0.8314760388443989 8.152011709260696 Q 0.8274185769058315 8.075527808976931 0.7844212526160641 8.011915859596956 Q 0.7414239283262967 7.948303910216979 0.667279436944155 7.910999830042238 Q 0.5931349455620134 7.873695749867497 0.5159824615277079 7.876857111494428 Q 0.43882997749340236 7.880018473121359 0.3745494443628873 7.92211969709949 Q 0.3102689112323723 7.964220921077621 0.27341427780672434 8.037472105334677 Q 0.2365596443810764 8.110723289591732 0.2410637598821868 8.187431913250045 Q 0.2455678753832972 8.264140536908357 0.28901185323560763 8.32797720966288 Q 0.33245583108791804 8.391813882417402 0.4066003224700597 8.429117962592144 Q 0.48074481385220136 8.466422042766885 0.5574506443239639 8.463035957765406 M 1.245708852465592 8.166655367042384 L 1.1578915121840758 8.427256815130994 L 1.5009377820316276 8.542856368519754 L 1.4805002919297476 8.603505432802194 L 1.1374540220821956 8.487905879413434 L 1.0426112945781585 8.769355443349133 L 0.9724858140015871 8.745724595418835 L 1.1960208619909005 8.082375454829645 L 1.6508888441092013 8.235656630593747 L 1.6304513540073213 8.296305694876187 L 1.245708852465592 8.166655367042384 M 2.0885760969138603 8.334347139026056 L 2.161686722314653 8.345785515375212 L 2.0633785147732504 8.974141701252297 L 2.4506672331125854 9.034734181372155 L 2.4407745832970984 9.097964992529597 L 1.9803752395569707 9.025934136060581 L 2.0885760969138603 8.334347139026056 M 2.6889673260637146 8.411256643222249 L 2.7627894910256585 8.41638382181593 L 2.714289152977317 9.114701598482968 L 2.640466988015373 9.109574419889286 L 2.6889673260637146 8.411256643222249 M 3.5810378356606156 8.41567341305071 L 3.2888669255354857 9.123300545993374 L 3.2158903444238973 9.125149494144027 L 2.888260154697184 8.433225756453494 L 2.968234490161938 8.431199511904833 L 3.2515479725386944 9.032216542198945 L 3.506061896162409 8.41757301731508 L 3.5810378356606156 8.41567341305071 M 3.6974269675377984 8.391973503968462 L 3.770888110665913 8.383059444830748 L 3.8552102916983415 9.077962150096697 L 3.781749148570227 9.086876209234411 L 3.6974269675377984 8.391973503968462 M 4.584212085060383 8.221626678891646 L 4.742688236630492 8.903451663314723 L 4.683272059416481 8.917261727951546 L 4.116363920727615 8.465886980886177 L 4.244955998001647 9.019139253960901 L 4.172877356791207 9.035892447126885 L 4.014401205221098 8.354067462703808 L 4.0738173824351085 8.340257398066985 L 4.6416995568160075 8.79140575063011 L 4.5131074795419766 8.238153477555386 L 4.584212085060383 8.221626678891646 M 5.40589793569459 8.28860863107155 L 5.471828128096691 8.262260771010022 L 5.570910925792864 8.510195438212289 Q 5.541366961777974 8.568308725765885 5.487686368686064 8.614529867306318 Q 5.434005775594154 8.660751008846752 5.3652898004145 8.688212158770035 Q 5.267787403200124 8.727177303931452 5.172715040881718 8.715634084138097 Q 5.077642678563312 8.704090864344742 5.002825779544784 8.64622307000928 Q 4.9280088805262565 8.588355275673816 4.890528121847179 8.49456725549618 Q 4.853047363168103 8.400779235318543 4.867375513031289 8.307286165406929 Q 4.881703662894475 8.213793095495314 4.942635136119069 8.139905643443694 Q 5.003566609343663 8.066018191392072 5.101997600817222 8.02668194961007 Q 5.1762851415519835 7.996994219963277 5.247963920742262 7.995809899993293 Q 5.31964269993254 7.994625580023309 5.380912866884275 8.023984848435628 L 5.355639072129278 8.084699223164208 Q 5.248135825728999 8.039355513419624 5.12927576055338 8.086855880854493 Q 5.050345248522696 8.118399093604213 5.00065266504049 8.178641496833698 Q 4.950960081558285 8.238883900063184 4.939422830718986 8.315108186501767 Q 4.927885579879686 8.39133247294035 4.9583155027676495 8.467477202193482 Q 4.988745425655613 8.543621931446612 5.049452978722414 8.590436384349978 Q 5.110160531789215 8.637250837253346 5.187406612995989 8.647302848902584 Q 5.264652694202764 8.65735486055182 5.343583206233448 8.625811647802102 Q 5.443871386225377 8.585733212778932 5.49347673815263 8.507756876239098 L 5.40589793569459 8.28860863107155 M 6.582616749956702 7.159755064217802 L 6.790707226714332 7.8685528869308685 L 6.726807488354551 7.9132834518451585 L 6.216505006077801 7.5417657852636255 L 6.390105020843398 8.148979120816612 L 6.327024509898486 8.19313621694995 L 5.732258693322696 7.755015658846438 L 5.7945199768527385 7.711432031494052 L 6.305232120789644 8.088766241492788 L 6.131222444363892 7.475736362522598 L 6.1877491359898515 7.43616701663688 L 6.70345859592909 7.813665033756412 L 6.524451603501005 7.200471347665426 L 6.582616749956702 7.159755064217802 M 6.680841356825706 7.038507408564441 L 6.735242362560696 6.988342375174423 L 7.209776462196003 7.502946483478377 L 7.155375456461014 7.5531115168683955 L 6.680841356825706 7.038507408564441 M 7.050919772632387 6.761948581754272 L 6.884919366830951 6.943497102193736 L 6.837687231432066 6.90031000474946 L 7.219623124454881 6.4826008073155705 L 7.266855259853767 6.525787904759846 L 7.100854854052331 6.70733642519931 L 7.570224199578751 7.136508206051802 L 7.520289118158807 7.191120362606764 L 7.050919772632387 6.761948581754272 M 7.6386637477239026 5.896802691864865 L 8.213397466376314 6.296403933909946 L 8.171724765420183 6.356340450283697 L 7.906526206670572 6.171953020025752 L 7.656490000933792 6.531572118268262 L 7.921688559683405 6.715959548526206 L 7.879444999810068 6.77671711306946 L 7.304711281157657 6.37711587102438 L 7.346954841030994 6.316358306481125 L 7.603121869916069 6.4944662886497895 L 7.853158075652848 6.134847190407281 L 7.596991046767773 5.956739208238616 L 7.6386637477239026 5.896802691864865 M 8.406275084667472 5.121163604417012 L 8.43415661174137 5.055867199860348 L 8.679707879581217 5.160717449560783 Q 8.700011408726507 5.222667160651686 8.694853028315972 5.293316938510786 Q 8.689694647905437 5.3639667163698865 8.660635028138277 5.432022123935987 Q 8.61940178387406 5.528587229266264 8.544110475651328 5.587775225567115 Q 8.468819167428595 5.646963221867965 8.375016769246692 5.659102418518629 Q 8.281214371064786 5.6712416151692935 8.188327936413758 5.631579161162762 Q 8.09544150176273 5.59191670715623 8.039338069765252 5.515767807504926 Q 7.983234637767773 5.439618907853622 7.973916520367787 5.34430273562603 Q 7.9645984029678 5.248986563398438 8.006224344796438 5.151501790398348 Q 8.037640149950125 5.077928376813375 8.08740241234655 5.026324430828699 Q 8.137164674742975 4.974720484844021 8.201212146196953 4.952050650253717 L 8.226372438714753 5.012812148592869 Q 8.118365791943205 5.056943364904748 8.068100503697304 5.174660826640705 Q 8.034721210721509 5.252832578574738 8.04230896517662 5.330555972622663 Q 8.04989671963173 5.4082793666705875 8.095739414661816 5.470260793827265 Q 8.141582109691901 5.532242220983943 8.216994858616498 5.564443421266474 Q 8.292407607541096 5.596644621549005 8.368420878761123 5.586695621678123 Q 8.444434149981149 5.576746621807241 8.506084955814645 5.529131727708016 Q 8.567735761648143 5.481516833608791 8.601115054623936 5.4033450816747575 Q 8.643526391581416 5.304020973335044 8.623316654743142 5.213840229620392 L 8.406275084667472 5.121163604417012 M 8.982535465216705 4.421334790462354 L 8.723946531081301 4.518065153548181 Q 8.719899445021662 4.54492815960532 8.712438808284984 4.572952058325579 L 8.664073301164454 4.754624229339671 L 8.878601077574713 4.811736689875618 L 8.859563590729397 4.883245948679038 L 8.183124656102455 4.703161613655784 L 8.250527650068301 4.449980183838271 Q 8.285000937058468 4.320490444923971 8.366398796026884 4.263513356938029 Q 8.447796654995301 4.206536268952087 8.556026884535612 4.235349762555807 Q 8.635266874020482 4.256445356087103 8.679188731024707 4.311083899966863 Q 8.72311058802893 4.365722443846623 8.727459844555908 4.446562310049274 L 9.003373795412253 4.343061142312665 L 8.982535465216705 4.421334790462354 M 8.647497946462577 4.39319476510563 Q 8.617195728510348 4.32821187822627 8.536989397690297 4.306859021359227 Q 8.454850384199881 4.284991637820689 8.396732369983019 4.326434929479151 Q 8.338614355766154 4.367878221137614 8.311858968848412 4.468377719996474 L 8.264007988399378 4.648117208340205 L 8.603193797048029 4.738416639187579 L 8.651044777497065 4.558677150843849 Q 8.677800164414807 4.458177651984989 8.647497946462577 4.39319476510563 M 8.919531918223802 3.6105491560775436 L 8.872041757192253 3.997646927454747 L 9.047421525707348 4.103792755425477 L 9.038045263144708 4.180219751312771 L 8.38222067741664 3.7773623165363874 L 8.391109861404598 3.7049055542016798 L 9.124867019081874 3.4725256205641917 L 9.115368986875565 3.5499451748396322 L 8.919531918223802 3.6105491560775436 M 8.856690634555894 3.6300420539372653 L 8.463031380476078 3.7510064771257463 L 8.81577603428256 3.9635416723545482 L 8.856690634555894 3.6300420539372653 M 8.417603354092977 2.6684914866742533 L 9.117393528235704 2.65135345372728 L 9.118886985392512 2.712335168902575 L 8.56207455098261 3.176106570442729 L 9.129904292286994 3.162200280851471 L 9.131716027198532 3.236178099260845 L 8.431925853055805 3.253316132207818 L 8.430432395898997 3.1923344170325234 L 8.987220347404689 2.727563315243594 L 8.419390606100304 2.741469604834852 L 8.417603354092977 2.6684914866742533 M 8.28774110899822 1.8483791237615894 L 8.976425218204547 1.7230228406055845 L 8.98734912287957 1.7830367415507071 L 8.509117342009583 2.3274799100870753 L 9.06793530490843 2.225762240326203 L 9.081187254842066 2.2985659890137287 L 8.39250314563574 2.4239222721697335 L 8.381579240960715 2.363908371224611 L 8.859631941426194 1.8184813682465193 L 8.300813978527346 1.9201990380073921 L 8.28774110899822 1.8483791237615894 M 8.580817666699911 1.2405812773485714 L 8.81061483800217 1.1647046665816154 L 8.833503237117823 1.2340236480075037 L 8.603706065815564 1.3099002587744595 L 8.25659179539537 1.7193824723938742 L 8.23182215799624 1.644366040439831 L 8.529755636251274 1.2932469117457985 L 8.081323095317979 1.188569998187416 L 8.058121156488415 1.118301441673502 L 8.580817666699911 1.2405812773485714" fill="#3361e1" fill-rule="nonzero"></path></g><g clip-path="url(#SvgjsClipPath1003)"><path d=" M 0 0 L 6.183044174910939 0 L 6.183044174910939 6.183044174910939 L 0 6.183044174910939 Z M 0.17659338728614338 0.17659338728614338 L 0.17659338728614338 6.006450787624796 L 6.006450787624796 6.006450787624796 L 6.006450787624796 0.17659338728614338 Z" fill="#8f8f8f" transform="matrix(1,0,0,1,0,0)" fill-rule="nonzero"></path><path d=" M 3.361970968950293 3.674844213018062 C 3.28100512186905 3.860084257097876 3.1834780787939163 4.015268797336925 3.0693898397248915 4.14039783373521 C 2.955301600655867 4.2655268701334945 2.8326260747751957 4.358760269802805 2.701363262082878 4.420098032743141 C 2.570100449390559 4.481435795683477 2.4455847906216777 4.512104677153644 2.3278162857762332 4.512104677153644 C 2.237036396624536 4.512104677153644 2.150550150878663 4.492476593012737 2.068357548538613 4.453220424730922 C 1.986164946198563 4.413964256449107 1.9150131411877738 4.354466626396982 1.8549021335062448 4.274727534574545 C 1.7947911258247158 4.194988442752109 1.7475610483606574 4.095007889159361 1.7132119011140694 3.9747858737963035 C 1.6788627538674814 3.854563858433245 1.6616881802441874 3.7134870036704735 1.6616881802441874 3.551555309507987 C 1.6616881802441874 3.235052452735855 1.7070781248200357 2.959032519504344 1.7978580139717326 2.7234955098134552 C 1.8886379031234295 2.4879585001225664 2.003339519821857 2.2916776587134917 2.1419628640670156 2.1346529855862326 C 2.2805862083121746 1.9776283124589729 2.429023594627787 1.861086562872335 2.587275023013853 1.7850277368263188 C 2.745526451399919 1.7089689107803026 2.893350460086128 1.6709394977572944 3.03074704907248 1.6709394977572944 C 3.128887469777017 1.6709394977572944 3.2141469602640838 1.6881140713805884 3.2865255205336803 1.7224632186271764 C 3.3589040808032764 1.7568123658737644 3.418401710855402 1.8028156880790163 3.465018410690057 1.860473185242932 C 3.511635110524712 1.9181306824068474 3.5453708801418964 1.9856022216412168 3.5662257195416105 2.06288780294604 C 3.5870805589413255 2.1401733842508626 3.5975079786411817 2.221752608961509 3.5975079786411817 2.307625477077979 L 3.0933115672716225 2.403312387264903 C 3.071229972613102 2.3051719665603656 3.0417878464017405 2.235246916808383 3.004985188637539 2.193537238008955 C 2.968182530873338 2.1518275592095266 2.9264728520739096 2.1309727198098125 2.8798561522392543 2.1309727198098125 C 2.8185183892989185 2.1309727198098125 2.751046850064549 2.1745225314974506 2.6774415345361464 2.261622154872727 C 2.6038362190077438 2.348721778248004 2.5351379245145678 2.460969884428818 2.471346651056619 2.5983664734151706 C 2.4075553775986696 2.7357630624015226 2.353578146211174 2.886653959234748 2.3094149568941322 3.0510391639148478 C 2.265251767577091 3.2154243685949475 2.2407166624009562 3.3773560627574337 2.2358096413657296 3.5368342464023064 C 2.2358096413657296 3.688951898494339 2.2585046136536535 3.7975197388987336 2.3038945582295023 3.862537767615489 C 2.3492845028053506 3.9275557963322445 2.4075553775986696 3.960064810690623 2.4787071826094587 3.960064810690623 C 2.5277773929617275 3.960064810690623 2.5786877362022063 3.9477972581025558 2.631438212330895 3.923262152926421 C 2.6841886884595834 3.8987270477502873 2.7314187659236415 3.8637645228742956 2.77312844472307 3.8183745782984477 C 2.8148381235224984 3.772984633722599 2.8498006483984897 3.72023415759391 2.8780160193510445 3.6601231499123816 C 2.906231390303599 3.6000121422308524 2.9215658310386825 3.5343807358846933 2.9240193415562956 3.4632289308739037 L 2.5302309034793407 3.522113183296626 L 2.600155953231323 3.157766871431032 C 2.7154709475591545 3.1430458083253514 2.8283324313693723 3.128324745219671 2.9387404046619765 3.1136036821139905 C 3.0319738043312867 3.101336129525923 3.1307276026652273 3.0866150664202427 3.235001799663798 3.0694404927969483 C 3.3392759966623684 3.0522659191736548 3.430669263443469 3.0363181008091673 3.509181600007099 3.0215970377034864 C 3.4920070263838046 3.2718551105000566 3.442936816031536 3.489604168938248 3.361970968950293 3.674844213018062 M 3.5718323744353757 4.379615109202519 C 3.4908665273541324 4.396789682825813 3.4197147223433433 4.412737501190301 3.3583769594030075 4.427458564295981 C 3.3878190856143684 4.321957612038604 3.4166478341963264 4.203575729563756 3.444863205148881 4.072312916871438 C 3.473078576101435 3.9410501041791193 3.5012939470539894 3.8030401375633636 3.5295093180065438 3.6582830170241714 C 3.557724688959098 3.513525896484979 3.584713304652846 3.3669286430575767 3.610475165087787 3.218491256741964 C 3.6362370255227283 3.070053870426352 3.661385508328266 2.9271368827753697 3.6859206135043996 2.7897402937890177 C 3.737444334374282 2.4634233949464317 3.7889680552441636 2.1260656987745854 3.840491776114046 1.7776672052734788 L 5.073380811214793 1.7151026870743364 L 4.96665310369861 2.1677753775740136 L 4.388851376800647 2.1677753775740136 L 4.274763137731623 2.822862685776799 C 4.35082196377764 2.8204091752591856 4.423200524047235 2.819182420000379 4.491898818540411 2.819182420000379 C 4.54832956044552 2.819182420000379 4.605987057609435 2.819182420000379 4.664871310032158 2.819182420000379 C 4.72375556245488 2.819182420000379 4.7691455070307285 2.817955664741572 4.801041143759703 2.8155021542239584 C 4.793680612206863 2.8842004487171344 4.784479947765813 2.951671987951504 4.773439150436552 3.0179167719270668 C 4.762398353107292 3.084161555902629 4.751970933407435 3.1504063398781916 4.742156891336981 3.216651123853754 C 4.710261254608007 3.216651123853754 4.664871310032158 3.216037746224351 4.605987057609435 3.2148109909655442 C 4.5471028051867135 3.2135842357067377 4.486378419875781 3.2117441028185274 4.423813901676638 3.209290592300914 C 4.361249383477496 3.2068370817833003 4.2907109560961105 3.204383571265687 4.21219861953248 3.201930060748074 L 4.042906393817153 4.287608464792016 C 3.959487036218297 4.302329527897696 3.877294433878247 4.3182773462621835 3.7963285867970047 4.335451919885477 C 3.7276302923038287 4.347719472473544 3.652798221516619 4.362440535579225 3.5718323744353757 4.379615109202519" fill="#3361e1" transform="matrix(1,0,0,1,0,0)" fill-rule="nonzero"></path></g><g transform="matrix(0.742967804396512,-0.6693271559037676,0.6693271559037676,0.742967804396512,-0.3246993222072596,-1.097624301900431)"><g clip-path="url(#SvgjsClipPath1004)"><path d=" M -1.591489210172447 0.0692754201766076 C -1.4827638753448606 0.0692754201766076 -1.392703881034516 -0.020591899650978684 -1.392703881034516 -0.12950990896132353 C -1.392703881034516 -0.23823480589235796 -1.4827638753448606 -0.32829458125442695 -1.5916818846552057 -0.32829458125442695 C -1.7004074384310677 -0.32829458125442695 -1.790274539310378 -0.23823480589235796 -1.790274539310378 -0.12950990896132353 C -1.790274539310378 -0.020591899650978684 -1.700214982896585 0.0692754201766076 -1.591489210172447 0.0692754201766076 Z M -1.591489210172447 0.030212858280055876 C -1.6800093412586539 0.030212858280055876 -1.7510177702931367 -0.04098912103028901 -1.7510177702931367 -0.12950990896132353 C -1.7510177702931367 -0.21802850740959936 -1.6802017967931366 -0.28903781223718555 -1.5916818846552057 -0.28903781223718555 C -1.503161096724171 -0.28903781223718555 -1.4319613068965849 -0.21802850740959936 -1.4317686324138263 -0.12950990896132353 C -1.4317686324138263 -0.04098912103028901 -1.5029684222414126 0.030212858280055876 -1.591489210172447 0.030212858280055876 Z M -1.5912965356896884 -0.05407565947856491 C -1.549731395000033 -0.05407565947856491 -1.5158622862069298 -0.08794257878890965 -1.5158622862069298 -0.1298930684440821 C -1.5158622862069298 -0.17146039861649587 -1.549731395000033 -0.20532950740959935 -1.5912965356896884 -0.20532950740959935 C -1.6332470253448608 -0.20532950740959935 -1.6671161341379641 -0.17146039861649587 -1.6671161341379641 -0.1298930684440821 C -1.6671161341379641 -0.08794257878890965 -1.6332470253448608 -0.05407565947856491 -1.5912965356896884 -0.05407565947856491 Z" fill="#8f8f8f" transform="matrix(1,0,0,1,0,0)" fill-rule="nonzero"></path></g></g><g transform="matrix(-0.742967804396512,-0.6693271559037676,-0.6693271559037676,0.742967804396512,13.466396740643546,5.171308963912579)"><g clip-path="url(#SvgjsClipPath1005)"><path d=" M 7.7745333850833855 0.0692754201766076 C 7.883258719910972 0.0692754201766076 7.973318714221317 -0.020591899650978684 7.973318714221317 -0.12950990896132353 C 7.973318714221317 -0.23823480589235796 7.883258719910972 -0.32829458125442695 7.774340710600627 -0.32829458125442695 C 7.6656151568247655 -0.32829458125442695 7.575748055945454 -0.23823480589235796 7.575748055945454 -0.12950990896132353 C 7.575748055945454 -0.020591899650978684 7.665807612359248 0.0692754201766076 7.7745333850833855 0.0692754201766076 Z M 7.7745333850833855 0.030212858280055876 C 7.686013253997179 0.030212858280055876 7.615004824962696 -0.04098912103028901 7.615004824962696 -0.12950990896132353 C 7.615004824962696 -0.21802850740959936 7.6858207984626965 -0.28903781223718555 7.774340710600627 -0.28903781223718555 C 7.862861498531662 -0.28903781223718555 7.934061288359247 -0.21802850740959936 7.934253962842006 -0.12950990896132353 C 7.934253962842006 -0.04098912103028901 7.8630541730144206 0.030212858280055876 7.7745333850833855 0.030212858280055876 Z M 7.774726059566144 -0.05407565947856491 C 7.816291200255799 -0.05407565947856491 7.850160309048903 -0.08794257878890965 7.850160309048903 -0.1298930684440821 C 7.850160309048903 -0.17146039861649587 7.816291200255799 -0.20532950740959935 7.774726059566144 -0.20532950740959935 C 7.732775569910972 -0.20532950740959935 7.698906461117868 -0.17146039861649587 7.698906461117868 -0.1298930684440821 C 7.698906461117868 -0.08794257878890965 7.732775569910972 -0.05407565947856491 7.774726059566144 -0.05407565947856491 Z" fill="#8f8f8f" transform="matrix(1,0,0,1,0,0)" fill-rule="nonzero"></path></g></g></g><defs><clipPath id="SvgjsClipPath1003"><path d=" M 0 0 h 6.183044174910939 v 6.183044174910939 h -6.183044174910939 Z"></path></clipPath><clipPath id="SvgjsClipPath1004"><path d=" M -1.8980167963793435 -0.44351895775442696 h 0.6130551724137931 v 0.63495 h -0.6130551724137931 Z"></path></clipPath><clipPath id="SvgjsClipPath1005"><path d=" M 7.468005798876489 -0.44351895775442696 h 0.6130551724137931 v 0.63495 h -0.6130551724137931 Z"></path></clipPath></defs></svg>